<svg width="275" height="89" viewBox="0 0 275 89" fill="none" xmlns="http://www.w3.org/2000/svg">
<rect width="88.1569" height="88.1569" fill="black"/>
<mask id="path-1-outside-1_18_1800" maskUnits="userSpaceOnUse" x="4.80801" y="19.7461" width="79" height="56" fill="black">
<rect fill="white" x="4.80801" y="19.7461" width="79" height="56"/>
<path d="M42.931 25.0284L24.7599 23.3273L20.5845 24.0232L14.4759 29.5905V40.6478L19.5793 46.2151L22.6722 54.7207L29.0901 55.9579L32.3376 59.4374L38.0596 61.5252L45.2507 60.288L50.2767 62.0664L54.1429 60.7519L59.0916 55.9579L65.3548 54.1794L67.1333 50.5452L69.453 45.1326L71.9273 42.7355L73.9377 38.4827L73.3192 30.905L69.453 25.0284L62.8031 22.5541L42.931 25.0284Z"/>
<path fill-rule="evenodd" clip-rule="evenodd" d="M62.3704 21.7461C64.007 21.7446 65.6281 22.0656 67.1404 22.6912C68.6526 23.3167 70.0263 24.2351 71.1835 25.3922C72.3408 26.5495 73.2595 27.9236 73.8852 29.4359C74.5108 30.9482 74.8317 32.5693 74.8302 34.2059L74.8314 37.9711L74.832 37.9844L74.8411 38.362C74.8411 38.4877 74.8378 38.6135 74.832 38.7391L74.8314 38.7536V38.9035L74.8054 39.1192L74.8048 39.1246C74.7571 39.5591 74.6809 39.9902 74.577 40.4147L74.565 40.4498L74.5607 40.4782C73.975 42.6156 72.3178 44.0461 71.3618 44.8609L70.9551 45.2071C70.4582 45.6295 70.1044 45.9302 69.8535 46.1642C69.6017 46.3991 69.4151 46.6018 69.2771 46.835L69.2728 46.8422L69.2227 46.9365C69.1102 47.1596 69.034 47.4105 68.9616 47.722C68.8792 48.0771 68.7899 48.5632 68.6637 49.2472V49.249L68.5882 49.6635C68.3628 50.8921 67.9518 53.0461 66.3893 54.6088C64.8282 56.1699 62.6733 56.5844 61.4404 56.8137L61.0126 56.8929C60.3318 57.0196 59.8467 57.1094 59.4917 57.1926C59.1354 57.276 58.858 57.3633 58.6107 57.5044L58.6022 57.5098C58.3691 57.6479 58.1669 57.8339 57.9321 58.0857C57.8152 58.211 57.682 58.3625 57.5248 58.5443L56.9749 59.1879L56.6287 59.5945C55.8126 60.5521 54.3784 62.2127 52.2351 62.7959L52.2164 62.8013C50.1199 63.36 48.0682 62.6453 46.9062 62.2309L46.9031 62.2297L46.6095 62.1276C45.9131 61.8806 45.414 61.7029 45.036 61.5886C44.6563 61.4738 44.3491 61.4064 44.0426 61.4055H44.039C43.7352 61.4064 43.4325 61.4715 43.0582 61.5837C42.6863 61.6953 42.197 61.8694 41.515 62.1113L41.1778 62.2297L40.6992 62.3953C39.4937 62.8008 37.6879 63.2842 35.844 62.7862C33.6969 62.2078 32.2582 60.5417 31.4401 59.5818L31.0939 59.1752C30.6716 58.6783 30.3714 58.3245 30.1374 58.0736C29.9023 57.8216 29.6993 57.6352 29.466 57.4971L29.4588 57.4929C29.2121 57.3516 28.9349 57.2644 28.579 57.1817C28.2239 57.0992 27.7378 57.0093 27.0538 56.8832H27.052L26.6381 56.8089C25.4095 56.5834 23.2551 56.1716 21.6922 54.6088C20.1378 53.0543 19.726 50.9029 19.5006 49.6768L19.5 49.675L19.425 49.2744C19.2971 48.5837 19.2064 48.0923 19.1229 47.7329C19.0392 47.3727 18.9512 47.092 18.8087 46.8428L18.9229 47.0753L18.5072 46.6736L17.4887 45.5279C17.238 45.294 17.6233 45.6301 17.1258 45.2071V45.2083L16.7192 44.8609C15.7631 44.0461 14.1065 42.6154 13.5208 40.4782L13.516 40.4498L13.5033 40.4117C13.4048 40.0291 13.3381 39.6608 13.2954 39.3137L13.2604 38.9693L13.2507 38.8521L13.2259 34.2029C13.2249 32.5673 13.5463 30.9473 14.1716 29.4359C14.7972 27.9237 15.7148 26.5494 16.872 25.3922C18.0293 24.235 19.4035 23.3168 20.9157 22.6912C22.428 22.0656 24.0498 21.7446 25.6864 21.7461L30.1961 22.5297C38.9543 24.0515 47.9051 24.0996 56.6791 22.6721L62.3704 21.7461ZM58.5998 24.0592V31.8463C58.5998 40.2171 51.7964 47.0209 43.4256 47.0211H43.4244C35.0422 47.0331 28.2509 40.2428 28.2508 31.8463V24.0592L25.6864 24.0598C24.3536 24.0582 23.0333 24.3186 21.8016 24.8278C20.5696 25.3372 19.4498 26.0847 18.5072 27.0273C17.5645 27.97 16.817 29.0898 16.3077 30.3218C15.7983 31.5536 15.5374 32.8741 15.539 34.2071V34.2102L15.5638 38.7294V38.7536L15.5922 39.0322C15.6241 39.2916 15.6737 39.566 15.7469 39.8485L15.7487 39.8534L15.791 40.0002C16.018 40.7277 16.4451 41.3453 16.9349 41.8861C17.3242 42.3159 17.7714 42.7164 18.2147 43.0946L18.6546 43.4662C18.8922 43.6676 19.1144 43.8505 19.329 44.0409L19.7006 44.3714L25.093 40.4467C25.6179 40.0694 26.3376 40.18 26.7287 40.6963C27.1077 41.2256 26.9924 41.9535 26.4888 42.3417L21.0964 46.2494L21.2287 46.6736C21.4221 47.2935 21.5437 47.9786 21.6747 48.71C21.8068 49.4488 21.9474 50.2386 22.1811 50.9639C22.4162 51.6936 22.7591 52.4053 23.3273 52.9736C23.8998 53.5461 24.6143 53.8903 25.3462 54.126C26.0733 54.3601 26.864 54.5003 27.6019 54.6317C28.1555 54.7303 28.6848 54.8244 29.1856 54.949L29.6642 55.068L32.6251 49.2073C32.9253 48.6548 33.6353 48.4433 34.207 48.7499C34.7607 49.0468 34.9774 49.7575 34.6584 50.3451L34.6542 50.353L34.65 50.3614L31.6522 56.2995L31.9393 56.6149L32.3924 57.1237C32.5412 57.2949 32.6879 57.4685 32.8324 57.6434L32.8348 57.6464L33.2064 58.0863C33.5846 58.5296 33.9851 58.9768 34.4149 59.3661C34.9916 59.8884 35.6554 60.3398 36.447 60.5529C37.2134 60.76 37.9909 60.7036 38.7323 60.545C39.4687 60.3875 40.2156 60.1178 40.9192 59.8634C41.4071 59.6882 41.8792 59.5197 42.344 59.3824L42.7809 59.2537L42.8764 52.683L42.877 52.6782V52.6739C42.877 52.0365 43.4033 51.5101 44.0408 51.5101C44.6384 51.5102 45.1384 51.973 45.1985 52.5561L45.2046 52.6739L45.1218 59.209L45.5798 59.3371C46.0972 59.4817 46.6225 59.6719 47.1733 59.8707C47.8732 60.1238 48.6174 60.3935 49.3498 60.5517C50.0863 60.7107 50.8592 60.7684 51.6194 60.5656L51.6212 60.565C52.4129 60.352 53.0766 59.9011 53.6533 59.3788C54.2265 58.8596 54.7476 58.238 55.2335 57.6591C55.6699 57.1391 56.0822 56.6512 56.5139 56.236L56.8698 55.894L53.5192 50.3119C53.2106 49.7584 53.4158 49.0496 53.9748 48.7499C54.5483 48.4424 55.2613 48.6563 55.5598 49.2127L55.567 49.2254L58.9859 54.9308L59.4186 54.8378C59.7575 54.7652 60.1089 54.703 60.47 54.6384C61.2108 54.5056 62.004 54.3647 62.7329 54.129C63.4663 53.8919 64.1813 53.5458 64.7536 52.9736C65.326 52.4012 65.6709 51.6867 65.9065 50.9548C66.1406 50.2277 66.2802 49.4375 66.4117 48.6997C66.5516 47.9138 66.6822 47.1817 66.8999 46.531L67.0467 46.0935L61.6997 42.3496C61.1891 41.9485 61.0896 41.2161 61.4725 40.7029C61.8622 40.1806 62.5863 40.0673 63.1136 40.4461L63.1191 40.4498L68.5109 44.2445L69.4269 43.4662C70.0058 42.9804 70.6269 42.4592 71.146 41.8861C71.6685 41.3092 72.1198 40.6452 72.3328 39.8534L72.3346 39.8485C72.4344 39.4637 72.4757 39.1096 72.5129 38.7995L72.5171 38.7633V38.6871C72.5291 38.4686 72.5296 38.2596 72.5177 38.0412L72.5171 34.2065C72.5187 32.8737 72.2578 31.5535 71.7485 30.3218C71.2391 29.0897 70.4911 27.97 69.5484 27.0273C68.6058 26.0848 67.4864 25.3378 66.2546 24.8284C65.0228 24.3192 63.7026 24.0576 62.3698 24.0592H58.5998Z"/>
<path d="M26.1954 68.5777C25.7532 69.5026 24.6449 69.8939 23.72 69.4517C22.7951 69.0095 22.4037 67.9012 22.8459 66.9763L31.6856 48.4867C32.1278 47.5617 33.2361 47.1704 34.161 47.6126C35.0859 48.0548 35.4773 49.1631 35.0351 50.088L26.1954 68.5777Z"/>
<path d="M61.9616 68.5777C62.4038 69.5026 63.512 69.8939 64.437 69.4517C65.3619 69.0095 65.7532 67.9012 65.311 66.9763L56.4713 48.4867C56.0291 47.5617 54.9209 47.1704 53.9959 47.6126C53.071 48.0548 52.6797 49.1631 53.1219 50.088L61.9616 68.5777Z"/>
<path d="M9.8143 56.544C9.0095 57.1791 7.84225 57.0415 7.20716 56.2367C6.57208 55.432 6.70966 54.2647 7.51445 53.6296L24.7937 39.9941C25.5985 39.359 26.7658 39.4966 27.4009 40.3014C28.036 41.1062 27.8984 42.2734 27.0936 42.9085L9.8143 56.544Z"/>
<path d="M78.3426 56.544C79.1474 57.1791 80.3147 57.0415 80.9498 56.2367C81.5849 55.432 81.4473 54.2647 80.6425 53.6296L63.3632 39.9941C62.5584 39.359 61.3912 39.4966 60.7561 40.3014C60.121 41.1062 60.2586 42.2734 61.0634 42.9085L78.3426 56.544Z"/>
<path d="M46.3221 71.6858C46.3221 72.711 45.491 73.5421 44.4658 73.5421C43.4406 73.5421 42.6095 72.711 42.6095 71.6858V52.4794C42.6095 51.4542 43.4406 50.6232 44.4658 50.6232C45.491 50.6232 46.3221 51.4542 46.3221 52.4794V71.6858Z"/>
<path d="M49.4074 35.0614C49.4074 38.3838 46.714 41.0772 43.3916 41.0772C40.0691 41.0772 37.3758 38.3838 37.3758 35.0614C37.3758 31.7389 40.0691 29.0455 43.3916 29.0455C46.714 29.0455 49.4074 31.7389 49.4074 35.0614Z"/>
</mask>
<path d="M42.931 25.0284L24.7599 23.3273L20.5845 24.0232L14.4759 29.5905V40.6478L19.5793 46.2151L22.6722 54.7207L29.0901 55.9579L32.3376 59.4374L38.0596 61.5252L45.2507 60.288L50.2767 62.0664L54.1429 60.7519L59.0916 55.9579L65.3548 54.1794L67.1333 50.5452L69.453 45.1326L71.9273 42.7355L73.9377 38.4827L73.3192 30.905L69.453 25.0284L62.8031 22.5541L42.931 25.0284Z" fill="white"/>
<path fill-rule="evenodd" clip-rule="evenodd" d="M62.3704 21.7461C64.007 21.7446 65.6281 22.0656 67.1404 22.6912C68.6526 23.3167 70.0263 24.2351 71.1835 25.3922C72.3408 26.5495 73.2595 27.9236 73.8852 29.4359C74.5108 30.9482 74.8317 32.5693 74.8302 34.2059L74.8314 37.9711L74.832 37.9844L74.8411 38.362C74.8411 38.4877 74.8378 38.6135 74.832 38.7391L74.8314 38.7536V38.9035L74.8054 39.1192L74.8048 39.1246C74.7571 39.5591 74.6809 39.9902 74.577 40.4147L74.565 40.4498L74.5607 40.4782C73.975 42.6156 72.3178 44.0461 71.3618 44.8609L70.9551 45.2071C70.4582 45.6295 70.1044 45.9302 69.8535 46.1642C69.6017 46.3991 69.4151 46.6018 69.2771 46.835L69.2728 46.8422L69.2227 46.9365C69.1102 47.1596 69.034 47.4105 68.9616 47.722C68.8792 48.0771 68.7899 48.5632 68.6637 49.2472V49.249L68.5882 49.6635C68.3628 50.8921 67.9518 53.0461 66.3893 54.6088C64.8282 56.1699 62.6733 56.5844 61.4404 56.8137L61.0126 56.8929C60.3318 57.0196 59.8467 57.1094 59.4917 57.1926C59.1354 57.276 58.858 57.3633 58.6107 57.5044L58.6022 57.5098C58.3691 57.6479 58.1669 57.8339 57.9321 58.0857C57.8152 58.211 57.682 58.3625 57.5248 58.5443L56.9749 59.1879L56.6287 59.5945C55.8126 60.5521 54.3784 62.2127 52.2351 62.7959L52.2164 62.8013C50.1199 63.36 48.0682 62.6453 46.9062 62.2309L46.9031 62.2297L46.6095 62.1276C45.9131 61.8806 45.414 61.7029 45.036 61.5886C44.6563 61.4738 44.3491 61.4064 44.0426 61.4055H44.039C43.7352 61.4064 43.4325 61.4715 43.0582 61.5837C42.6863 61.6953 42.197 61.8694 41.515 62.1113L41.1778 62.2297L40.6992 62.3953C39.4937 62.8008 37.6879 63.2842 35.844 62.7862C33.6969 62.2078 32.2582 60.5417 31.4401 59.5818L31.0939 59.1752C30.6716 58.6783 30.3714 58.3245 30.1374 58.0736C29.9023 57.8216 29.6993 57.6352 29.466 57.4971L29.4588 57.4929C29.2121 57.3516 28.9349 57.2644 28.579 57.1817C28.2239 57.0992 27.7378 57.0093 27.0538 56.8832H27.052L26.6381 56.8089C25.4095 56.5834 23.2551 56.1716 21.6922 54.6088C20.1378 53.0543 19.726 50.9029 19.5006 49.6768L19.5 49.675L19.425 49.2744C19.2971 48.5837 19.2064 48.0923 19.1229 47.7329C19.0392 47.3727 18.9512 47.092 18.8087 46.8428L18.9229 47.0753L18.5072 46.6736L17.4887 45.5279C17.238 45.294 17.6233 45.6301 17.1258 45.2071V45.2083L16.7192 44.8609C15.7631 44.0461 14.1065 42.6154 13.5208 40.4782L13.516 40.4498L13.5033 40.4117C13.4048 40.0291 13.3381 39.6608 13.2954 39.3137L13.2604 38.9693L13.2507 38.8521L13.2259 34.2029C13.2249 32.5673 13.5463 30.9473 14.1716 29.4359C14.7972 27.9237 15.7148 26.5494 16.872 25.3922C18.0293 24.235 19.4035 23.3168 20.9157 22.6912C22.428 22.0656 24.0498 21.7446 25.6864 21.7461L30.1961 22.5297C38.9543 24.0515 47.9051 24.0996 56.6791 22.6721L62.3704 21.7461ZM58.5998 24.0592V31.8463C58.5998 40.2171 51.7964 47.0209 43.4256 47.0211H43.4244C35.0422 47.0331 28.2509 40.2428 28.2508 31.8463V24.0592L25.6864 24.0598C24.3536 24.0582 23.0333 24.3186 21.8016 24.8278C20.5696 25.3372 19.4498 26.0847 18.5072 27.0273C17.5645 27.97 16.817 29.0898 16.3077 30.3218C15.7983 31.5536 15.5374 32.8741 15.539 34.2071V34.2102L15.5638 38.7294V38.7536L15.5922 39.0322C15.6241 39.2916 15.6737 39.566 15.7469 39.8485L15.7487 39.8534L15.791 40.0002C16.018 40.7277 16.4451 41.3453 16.9349 41.8861C17.3242 42.3159 17.7714 42.7164 18.2147 43.0946L18.6546 43.4662C18.8922 43.6676 19.1144 43.8505 19.329 44.0409L19.7006 44.3714L25.093 40.4467C25.6179 40.0694 26.3376 40.18 26.7287 40.6963C27.1077 41.2256 26.9924 41.9535 26.4888 42.3417L21.0964 46.2494L21.2287 46.6736C21.4221 47.2935 21.5437 47.9786 21.6747 48.71C21.8068 49.4488 21.9474 50.2386 22.1811 50.9639C22.4162 51.6936 22.7591 52.4053 23.3273 52.9736C23.8998 53.5461 24.6143 53.8903 25.3462 54.126C26.0733 54.3601 26.864 54.5003 27.6019 54.6317C28.1555 54.7303 28.6848 54.8244 29.1856 54.949L29.6642 55.068L32.6251 49.2073C32.9253 48.6548 33.6353 48.4433 34.207 48.7499C34.7607 49.0468 34.9774 49.7575 34.6584 50.3451L34.6542 50.353L34.65 50.3614L31.6522 56.2995L31.9393 56.6149L32.3924 57.1237C32.5412 57.2949 32.6879 57.4685 32.8324 57.6434L32.8348 57.6464L33.2064 58.0863C33.5846 58.5296 33.9851 58.9768 34.4149 59.3661C34.9916 59.8884 35.6554 60.3398 36.447 60.5529C37.2134 60.76 37.9909 60.7036 38.7323 60.545C39.4687 60.3875 40.2156 60.1178 40.9192 59.8634C41.4071 59.6882 41.8792 59.5197 42.344 59.3824L42.7809 59.2537L42.8764 52.683L42.877 52.6782V52.6739C42.877 52.0365 43.4033 51.5101 44.0408 51.5101C44.6384 51.5102 45.1384 51.973 45.1985 52.5561L45.2046 52.6739L45.1218 59.209L45.5798 59.3371C46.0972 59.4817 46.6225 59.6719 47.1733 59.8707C47.8732 60.1238 48.6174 60.3935 49.3498 60.5517C50.0863 60.7107 50.8592 60.7684 51.6194 60.5656L51.6212 60.565C52.4129 60.352 53.0766 59.9011 53.6533 59.3788C54.2265 58.8596 54.7476 58.238 55.2335 57.6591C55.6699 57.1391 56.0822 56.6512 56.5139 56.236L56.8698 55.894L53.5192 50.3119C53.2106 49.7584 53.4158 49.0496 53.9748 48.7499C54.5483 48.4424 55.2613 48.6563 55.5598 49.2127L55.567 49.2254L58.9859 54.9308L59.4186 54.8378C59.7575 54.7652 60.1089 54.703 60.47 54.6384C61.2108 54.5056 62.004 54.3647 62.7329 54.129C63.4663 53.8919 64.1813 53.5458 64.7536 52.9736C65.326 52.4012 65.6709 51.6867 65.9065 50.9548C66.1406 50.2277 66.2802 49.4375 66.4117 48.6997C66.5516 47.9138 66.6822 47.1817 66.8999 46.531L67.0467 46.0935L61.6997 42.3496C61.1891 41.9485 61.0896 41.2161 61.4725 40.7029C61.8622 40.1806 62.5863 40.0673 63.1136 40.4461L63.1191 40.4498L68.5109 44.2445L69.4269 43.4662C70.0058 42.9804 70.6269 42.4592 71.146 41.8861C71.6685 41.3092 72.1198 40.6452 72.3328 39.8534L72.3346 39.8485C72.4344 39.4637 72.4757 39.1096 72.5129 38.7995L72.5171 38.7633V38.6871C72.5291 38.4686 72.5296 38.2596 72.5177 38.0412L72.5171 34.2065C72.5187 32.8737 72.2578 31.5535 71.7485 30.3218C71.2391 29.0897 70.4911 27.97 69.5484 27.0273C68.6058 26.0848 67.4864 25.3378 66.2546 24.8284C65.0228 24.3192 63.7026 24.0576 62.3698 24.0592H58.5998Z" fill="black"/>
<path d="M26.1954 68.5777C25.7532 69.5026 24.6449 69.8939 23.72 69.4517C22.7951 69.0095 22.4037 67.9012 22.8459 66.9763L31.6856 48.4867C32.1278 47.5617 33.2361 47.1704 34.161 47.6126C35.0859 48.0548 35.4773 49.1631 35.0351 50.088L26.1954 68.5777Z" fill="black"/>
<path d="M61.9616 68.5777C62.4038 69.5026 63.512 69.8939 64.437 69.4517C65.3619 69.0095 65.7532 67.9012 65.311 66.9763L56.4713 48.4867C56.0291 47.5617 54.9209 47.1704 53.9959 47.6126C53.071 48.0548 52.6797 49.1631 53.1219 50.088L61.9616 68.5777Z" fill="black"/>
<path d="M9.8143 56.544C9.0095 57.1791 7.84225 57.0415 7.20716 56.2367C6.57208 55.432 6.70966 54.2647 7.51445 53.6296L24.7937 39.9941C25.5985 39.359 26.7658 39.4966 27.4009 40.3014C28.036 41.1062 27.8984 42.2734 27.0936 42.9085L9.8143 56.544Z" fill="black"/>
<path d="M78.3426 56.544C79.1474 57.1791 80.3147 57.0415 80.9498 56.2367C81.5849 55.432 81.4473 54.2647 80.6425 53.6296L63.3632 39.9941C62.5584 39.359 61.3912 39.4966 60.7561 40.3014C60.121 41.1062 60.2586 42.2734 61.0634 42.9085L78.3426 56.544Z" fill="black"/>
<path d="M46.3221 71.6858C46.3221 72.711 45.491 73.5421 44.4658 73.5421C43.4406 73.5421 42.6095 72.711 42.6095 71.6858V52.4794C42.6095 51.4542 43.4406 50.6232 44.4658 50.6232C45.491 50.6232 46.3221 51.4542 46.3221 52.4794V71.6858Z" fill="black"/>
<path d="M49.4074 35.0614C49.4074 38.3838 46.714 41.0772 43.3916 41.0772C40.0691 41.0772 37.3758 38.3838 37.3758 35.0614C37.3758 31.7389 40.0691 29.0455 43.3916 29.0455C46.714 29.0455 49.4074 31.7389 49.4074 35.0614Z" fill="#D9D9D9"/>
<path d="M42.931 25.0284L24.7599 23.3273L20.5845 24.0232L14.4759 29.5905V40.6478L19.5793 46.2151L22.6722 54.7207L29.0901 55.9579L32.3376 59.4374L38.0596 61.5252L45.2507 60.288L50.2767 62.0664L54.1429 60.7519L59.0916 55.9579L65.3548 54.1794L67.1333 50.5452L69.453 45.1326L71.9273 42.7355L73.9377 38.4827L73.3192 30.905L69.453 25.0284L62.8031 22.5541L42.931 25.0284Z" stroke="white" stroke-width="3.71257" mask="url(#path-1-outside-1_18_1800)"/>
<path fill-rule="evenodd" clip-rule="evenodd" d="M62.3704 21.7461C64.007 21.7446 65.6281 22.0656 67.1404 22.6912C68.6526 23.3167 70.0263 24.2351 71.1835 25.3922C72.3408 26.5495 73.2595 27.9236 73.8852 29.4359C74.5108 30.9482 74.8317 32.5693 74.8302 34.2059L74.8314 37.9711L74.832 37.9844L74.8411 38.362C74.8411 38.4877 74.8378 38.6135 74.832 38.7391L74.8314 38.7536V38.9035L74.8054 39.1192L74.8048 39.1246C74.7571 39.5591 74.6809 39.9902 74.577 40.4147L74.565 40.4498L74.5607 40.4782C73.975 42.6156 72.3178 44.0461 71.3618 44.8609L70.9551 45.2071C70.4582 45.6295 70.1044 45.9302 69.8535 46.1642C69.6017 46.3991 69.4151 46.6018 69.2771 46.835L69.2728 46.8422L69.2227 46.9365C69.1102 47.1596 69.034 47.4105 68.9616 47.722C68.8792 48.0771 68.7899 48.5632 68.6637 49.2472V49.249L68.5882 49.6635C68.3628 50.8921 67.9518 53.0461 66.3893 54.6088C64.8282 56.1699 62.6733 56.5844 61.4404 56.8137L61.0126 56.8929C60.3318 57.0196 59.8467 57.1094 59.4917 57.1926C59.1354 57.276 58.858 57.3633 58.6107 57.5044L58.6022 57.5098C58.3691 57.6479 58.1669 57.8339 57.9321 58.0857C57.8152 58.211 57.682 58.3625 57.5248 58.5443L56.9749 59.1879L56.6287 59.5945C55.8126 60.5521 54.3784 62.2127 52.2351 62.7959L52.2164 62.8013C50.1199 63.36 48.0682 62.6453 46.9062 62.2309L46.9031 62.2297L46.6095 62.1276C45.9131 61.8806 45.414 61.7029 45.036 61.5886C44.6563 61.4738 44.3491 61.4064 44.0426 61.4055H44.039C43.7352 61.4064 43.4325 61.4715 43.0582 61.5837C42.6863 61.6953 42.197 61.8694 41.515 62.1113L41.1778 62.2297L40.6992 62.3953C39.4937 62.8008 37.6879 63.2842 35.844 62.7862C33.6969 62.2078 32.2582 60.5417 31.4401 59.5818L31.0939 59.1752C30.6716 58.6783 30.3714 58.3245 30.1374 58.0736C29.9023 57.8216 29.6993 57.6352 29.466 57.4971L29.4588 57.4929C29.2121 57.3516 28.9349 57.2644 28.579 57.1817C28.2239 57.0992 27.7378 57.0093 27.0538 56.8832H27.052L26.6381 56.8089C25.4095 56.5834 23.2551 56.1716 21.6922 54.6088C20.1378 53.0543 19.726 50.9029 19.5006 49.6768L19.5 49.675L19.425 49.2744C19.2971 48.5837 19.2064 48.0923 19.1229 47.7329C19.0392 47.3727 18.9512 47.092 18.8087 46.8428L18.9229 47.0753L18.5072 46.6736L17.4887 45.5279C17.238 45.294 17.6233 45.6301 17.1258 45.2071V45.2083L16.7192 44.8609C15.7631 44.0461 14.1065 42.6154 13.5208 40.4782L13.516 40.4498L13.5033 40.4117C13.4048 40.0291 13.3381 39.6608 13.2954 39.3137L13.2604 38.9693L13.2507 38.8521L13.2259 34.2029C13.2249 32.5673 13.5463 30.9473 14.1716 29.4359C14.7972 27.9237 15.7148 26.5494 16.872 25.3922C18.0293 24.235 19.4035 23.3168 20.9157 22.6912C22.428 22.0656 24.0498 21.7446 25.6864 21.7461L30.1961 22.5297C38.9543 24.0515 47.9051 24.0996 56.6791 22.6721L62.3704 21.7461ZM58.5998 24.0592V31.8463C58.5998 40.2171 51.7964 47.0209 43.4256 47.0211H43.4244C35.0422 47.0331 28.2509 40.2428 28.2508 31.8463V24.0592L25.6864 24.0598C24.3536 24.0582 23.0333 24.3186 21.8016 24.8278C20.5696 25.3372 19.4498 26.0847 18.5072 27.0273C17.5645 27.97 16.817 29.0898 16.3077 30.3218C15.7983 31.5536 15.5374 32.8741 15.539 34.2071V34.2102L15.5638 38.7294V38.7536L15.5922 39.0322C15.6241 39.2916 15.6737 39.566 15.7469 39.8485L15.7487 39.8534L15.791 40.0002C16.018 40.7277 16.4451 41.3453 16.9349 41.8861C17.3242 42.3159 17.7714 42.7164 18.2147 43.0946L18.6546 43.4662C18.8922 43.6676 19.1144 43.8505 19.329 44.0409L19.7006 44.3714L25.093 40.4467C25.6179 40.0694 26.3376 40.18 26.7287 40.6963C27.1077 41.2256 26.9924 41.9535 26.4888 42.3417L21.0964 46.2494L21.2287 46.6736C21.4221 47.2935 21.5437 47.9786 21.6747 48.71C21.8068 49.4488 21.9474 50.2386 22.1811 50.9639C22.4162 51.6936 22.7591 52.4053 23.3273 52.9736C23.8998 53.5461 24.6143 53.8903 25.3462 54.126C26.0733 54.3601 26.864 54.5003 27.6019 54.6317C28.1555 54.7303 28.6848 54.8244 29.1856 54.949L29.6642 55.068L32.6251 49.2073C32.9253 48.6548 33.6353 48.4433 34.207 48.7499C34.7607 49.0468 34.9774 49.7575 34.6584 50.3451L34.6542 50.353L34.65 50.3614L31.6522 56.2995L31.9393 56.6149L32.3924 57.1237C32.5412 57.2949 32.6879 57.4685 32.8324 57.6434L32.8348 57.6464L33.2064 58.0863C33.5846 58.5296 33.9851 58.9768 34.4149 59.3661C34.9916 59.8884 35.6554 60.3398 36.447 60.5529C37.2134 60.76 37.9909 60.7036 38.7323 60.545C39.4687 60.3875 40.2156 60.1178 40.9192 59.8634C41.4071 59.6882 41.8792 59.5197 42.344 59.3824L42.7809 59.2537L42.8764 52.683L42.877 52.6782V52.6739C42.877 52.0365 43.4033 51.5101 44.0408 51.5101C44.6384 51.5102 45.1384 51.973 45.1985 52.5561L45.2046 52.6739L45.1218 59.209L45.5798 59.3371C46.0972 59.4817 46.6225 59.6719 47.1733 59.8707C47.8732 60.1238 48.6174 60.3935 49.3498 60.5517C50.0863 60.7107 50.8592 60.7684 51.6194 60.5656L51.6212 60.565C52.4129 60.352 53.0766 59.9011 53.6533 59.3788C54.2265 58.8596 54.7476 58.238 55.2335 57.6591C55.6699 57.1391 56.0822 56.6512 56.5139 56.236L56.8698 55.894L53.5192 50.3119C53.2106 49.7584 53.4158 49.0496 53.9748 48.7499C54.5483 48.4424 55.2613 48.6563 55.5598 49.2127L55.567 49.2254L58.9859 54.9308L59.4186 54.8378C59.7575 54.7652 60.1089 54.703 60.47 54.6384C61.2108 54.5056 62.004 54.3647 62.7329 54.129C63.4663 53.8919 64.1813 53.5458 64.7536 52.9736C65.326 52.4012 65.6709 51.6867 65.9065 50.9548C66.1406 50.2277 66.2802 49.4375 66.4117 48.6997C66.5516 47.9138 66.6822 47.1817 66.8999 46.531L67.0467 46.0935L61.6997 42.3496C61.1891 41.9485 61.0896 41.2161 61.4725 40.7029C61.8622 40.1806 62.5863 40.0673 63.1136 40.4461L63.1191 40.4498L68.5109 44.2445L69.4269 43.4662C70.0058 42.9804 70.6269 42.4592 71.146 41.8861C71.6685 41.3092 72.1198 40.6452 72.3328 39.8534L72.3346 39.8485C72.4344 39.4637 72.4757 39.1096 72.5129 38.7995L72.5171 38.7633V38.6871C72.5291 38.4686 72.5296 38.2596 72.5177 38.0412L72.5171 34.2065C72.5187 32.8737 72.2578 31.5535 71.7485 30.3218C71.2391 29.0897 70.4911 27.97 69.5484 27.0273C68.6058 26.0848 67.4864 25.3378 66.2546 24.8284C65.0228 24.3192 63.7026 24.0576 62.3698 24.0592H58.5998Z" stroke="white" stroke-width="3.71257" mask="url(#path-1-outside-1_18_1800)"/>
<path d="M26.1954 68.5777C25.7532 69.5026 24.6449 69.8939 23.72 69.4517C22.7951 69.0095 22.4037 67.9012 22.8459 66.9763L31.6856 48.4867C32.1278 47.5617 33.2361 47.1704 34.161 47.6126C35.0859 48.0548 35.4773 49.1631 35.0351 50.088L26.1954 68.5777Z" stroke="white" stroke-width="3.71257" mask="url(#path-1-outside-1_18_1800)"/>
<path d="M61.9616 68.5777C62.4038 69.5026 63.512 69.8939 64.437 69.4517C65.3619 69.0095 65.7532 67.9012 65.311 66.9763L56.4713 48.4867C56.0291 47.5617 54.9209 47.1704 53.9959 47.6126C53.071 48.0548 52.6797 49.1631 53.1219 50.088L61.9616 68.5777Z" stroke="white" stroke-width="3.71257" mask="url(#path-1-outside-1_18_1800)"/>
<path d="M9.8143 56.544C9.0095 57.1791 7.84225 57.0415 7.20716 56.2367C6.57208 55.432 6.70966 54.2647 7.51445 53.6296L24.7937 39.9941C25.5985 39.359 26.7658 39.4966 27.4009 40.3014C28.036 41.1062 27.8984 42.2734 27.0936 42.9085L9.8143 56.544Z" stroke="white" stroke-width="3.71257" mask="url(#path-1-outside-1_18_1800)"/>
<path d="M78.3426 56.544C79.1474 57.1791 80.3147 57.0415 80.9498 56.2367C81.5849 55.432 81.4473 54.2647 80.6425 53.6296L63.3632 39.9941C62.5584 39.359 61.3912 39.4966 60.7561 40.3014C60.121 41.1062 60.2586 42.2734 61.0634 42.9085L78.3426 56.544Z" stroke="white" stroke-width="3.71257" mask="url(#path-1-outside-1_18_1800)"/>
<path d="M46.3221 71.6858C46.3221 72.711 45.491 73.5421 44.4658 73.5421C43.4406 73.5421 42.6095 72.711 42.6095 71.6858V52.4794C42.6095 51.4542 43.4406 50.6232 44.4658 50.6232C45.491 50.6232 46.3221 51.4542 46.3221 52.4794V71.6858Z" stroke="white" stroke-width="3.71257" mask="url(#path-1-outside-1_18_1800)"/>
<path d="M49.4074 35.0614C49.4074 38.3838 46.714 41.0772 43.3916 41.0772C40.0691 41.0772 37.3758 38.3838 37.3758 35.0614C37.3758 31.7389 40.0691 29.0455 43.3916 29.0455C46.714 29.0455 49.4074 31.7389 49.4074 35.0614Z" stroke="white" stroke-width="3.71257" mask="url(#path-1-outside-1_18_1800)"/>
<path d="M42.931 25.0283L24.7599 23.3272L20.5845 24.0231L14.4759 29.5904V40.6477L19.5792 46.215L22.6722 54.7206L29.09 55.9577L32.3376 59.4373L38.0596 61.525L45.2507 60.2879L50.2767 62.0663L54.1429 60.7518L59.0916 55.9577L65.3548 54.1793L67.1333 50.5451L69.453 45.1324L71.9273 42.7354L73.9377 38.4826L73.3191 30.9049L69.453 25.0283L62.8031 22.554L42.931 25.0283Z" fill="white" stroke="black" stroke-width="0.618762"/>
<path fill-rule="evenodd" clip-rule="evenodd" d="M62.3704 21.7461C64.007 21.7446 65.6281 22.0656 67.1404 22.6912C68.6526 23.3167 70.0263 24.2351 71.1835 25.3922C72.3408 26.5495 73.2596 27.9236 73.8852 29.4359C74.5108 30.9482 74.8317 32.5693 74.8303 34.2059L74.8315 37.9711L74.8321 37.9844L74.8411 38.362C74.8411 38.4877 74.8378 38.6135 74.8321 38.7391L74.8315 38.7536V38.9035L74.8055 39.1192L74.8049 39.1246C74.7571 39.5591 74.681 39.9902 74.5771 40.4147L74.565 40.4498L74.5608 40.4782C73.975 42.6156 72.3178 44.0461 71.3618 44.8609L70.9551 45.2071C70.4582 45.6295 70.1045 45.9302 69.8536 46.1642C69.6017 46.3991 69.4152 46.6018 69.2771 46.835L69.2729 46.8422L69.2227 46.9365C69.1102 47.1596 69.0341 47.4105 68.9617 47.722C68.8792 48.0771 68.7899 48.5632 68.6638 49.2472V49.249L68.5882 49.6635C68.3628 50.8921 67.9518 53.0461 66.3893 54.6088C64.8282 56.1699 62.6734 56.5844 61.4405 56.8137L61.0126 56.8929C60.3318 57.0196 59.8468 57.1094 59.4917 57.1926C59.1354 57.276 58.8581 57.3633 58.6107 57.5044L58.6022 57.5098C58.3691 57.6479 58.167 57.8339 57.9321 58.0857C57.8153 58.211 57.682 58.3625 57.5249 58.5443L56.975 59.1879L56.6287 59.5945C55.8127 60.5521 54.3784 62.2127 52.2352 62.7959L52.2164 62.8013C50.12 63.36 48.0682 62.6453 46.9062 62.2309L46.9032 62.2297L46.6095 62.1276C45.9131 61.8806 45.414 61.7029 45.036 61.5886C44.6563 61.4738 44.3491 61.4064 44.0426 61.4055H44.039C43.7352 61.4064 43.4326 61.4715 43.0583 61.5837C42.6864 61.6953 42.197 61.8694 41.515 62.1113L41.1778 62.2297L40.6992 62.3953C39.4937 62.8008 37.688 63.2842 35.844 62.7862C33.6969 62.2078 32.2582 60.5417 31.4402 59.5818L31.0939 59.1752C30.6716 58.6783 30.3714 58.3245 30.1374 58.0736C29.9024 57.8216 29.6993 57.6352 29.466 57.4971L29.4588 57.4929C29.2122 57.3516 28.9349 57.2644 28.579 57.1817C28.2239 57.0992 27.7378 57.0093 27.0538 56.8832H27.052L26.6381 56.8089C25.4095 56.5834 23.2551 56.1716 21.6922 54.6088C20.1379 53.0543 19.726 50.9029 19.5006 49.6768L19.5 49.675L19.4251 49.2744C19.2971 48.5837 19.2065 48.0923 19.1229 47.7329C19.0392 47.3727 18.9512 47.092 18.8087 46.8428L18.923 47.0753L18.5072 46.6736L17.4888 45.5279C17.238 45.294 17.6234 45.6301 17.1258 45.2071V45.2083L16.7192 44.8609C15.7632 44.0461 14.1066 42.6154 13.5208 40.4782L13.516 40.4498L13.5033 40.4117C13.4048 40.029 13.3381 39.6608 13.2954 39.3137L13.2604 38.9693L13.2507 38.8521L13.226 34.2029C13.2249 32.5673 13.5464 30.9473 14.1716 29.4359C14.7972 27.9237 15.7149 26.5494 16.8721 25.3922C18.0293 24.235 19.4035 23.3168 20.9158 22.6912C22.428 22.0656 24.0498 21.7446 25.6864 21.7461L30.1962 22.5297C38.9543 24.0515 47.9051 24.0996 56.6791 22.6721L62.3704 21.7461ZM59.1286 24.0592H58.5998V24.6901V31.8463C58.5998 40.2171 51.7965 47.0209 43.4257 47.0211H43.4245C35.0422 47.0331 28.2509 40.2428 28.2509 31.8463V24.6901V24.0592H27.73L25.6864 24.0598C24.3536 24.0582 23.0333 24.3186 21.8016 24.8278C20.5696 25.3372 19.4499 26.0847 18.5072 27.0273C17.5645 27.97 16.8171 29.0898 16.3077 30.3218C15.7984 31.5536 15.5374 32.8741 15.5391 34.2071V34.2102L15.5638 38.7294V38.7536L15.5922 39.0322C15.6241 39.2916 15.6737 39.566 15.7469 39.8485L15.7487 39.8534L15.791 40.0002C16.018 40.7277 16.4451 41.3453 16.9349 41.8861C17.3243 42.3159 17.7714 42.7164 18.2147 43.0946L18.6546 43.4662C18.8922 43.6676 19.1144 43.8505 19.329 44.0409L19.7006 44.3714L25.093 40.4467C25.6179 40.0694 26.3377 40.18 26.7287 40.6963C27.1078 41.2256 26.9924 41.9535 26.4889 42.3417L21.0964 46.2494L21.2288 46.6736C21.4221 47.2935 21.5437 47.9786 21.6747 48.71C21.8068 49.4488 21.9474 50.2386 22.1811 50.9639C22.4162 51.6936 22.7591 52.4053 23.3274 52.9736C23.8998 53.5461 24.6143 53.8903 25.3462 54.126C26.0733 54.3601 26.8641 54.5003 27.6019 54.6317C28.1556 54.7303 28.6849 54.8244 29.1857 54.949L29.6642 55.068L32.6251 49.2073C32.9253 48.6548 33.6353 48.4433 34.2071 48.7499C34.7608 49.0468 34.9775 49.7575 34.6585 50.3451L34.6542 50.353L34.65 50.3614L31.6523 56.2995L31.9393 56.6149L32.3925 57.1237C32.5412 57.2949 32.6879 57.4685 32.8324 57.6434L32.8348 57.6464L33.2064 58.0863C33.5846 58.5296 33.9851 58.9768 34.4149 59.3661C34.9916 59.8884 35.6555 60.3398 36.4471 60.5529C37.2134 60.76 37.9909 60.7036 38.7324 60.545C39.4687 60.3875 40.2157 60.1178 40.9192 59.8634C41.4071 59.6882 41.8793 59.5197 42.344 59.3824L42.7809 59.2537L42.8764 52.683L42.877 52.6782V52.6739C42.877 52.0365 43.4033 51.5101 44.0408 51.5101C44.6385 51.5102 45.1385 51.973 45.1986 52.5561L45.2046 52.6739L45.1218 59.209L45.5798 59.3371C46.0972 59.4817 46.6225 59.6719 47.1733 59.8707C47.8732 60.1238 48.6174 60.3935 49.3498 60.5517C50.0864 60.7107 50.8592 60.7684 51.6194 60.5656L51.6212 60.565C52.4129 60.352 53.0766 59.9011 53.6534 59.3788C54.2265 58.8596 54.7477 58.238 55.2335 57.6591C55.67 57.1391 56.0822 56.6512 56.5139 56.236L56.8698 55.894L53.5192 50.3119C53.2107 49.7584 53.4159 49.0496 53.9748 48.7499C54.5484 48.4424 55.2613 48.6563 55.5598 49.2127L55.5671 49.2254L58.986 54.9308L59.4186 54.8378C59.7575 54.7652 60.1089 54.703 60.47 54.6384C61.2109 54.5056 62.004 54.3647 62.733 54.129C63.4663 53.8918 64.1813 53.5458 64.7536 52.9736C65.326 52.4012 65.6709 51.6867 65.9065 50.9548C66.1406 50.2277 66.2803 49.4375 66.4117 48.6997C66.5516 47.9138 66.6823 47.1817 66.8999 46.531L67.0468 46.0935L61.6997 42.3495C61.1892 41.9485 61.0897 41.2161 61.4725 40.7029C61.8622 40.1806 62.5863 40.0673 63.1137 40.4461L63.1191 40.4498L68.5109 44.2445L69.427 43.4662C70.0058 42.9804 70.627 42.4592 71.1461 41.8861C71.6685 41.3092 72.1199 40.6452 72.3328 39.8534L72.3347 39.8485C72.4344 39.4637 72.4757 39.1096 72.5129 38.7995L72.5171 38.7633V38.6871C72.5291 38.4686 72.5296 38.2596 72.5178 38.0412L72.5171 34.2065C72.5188 32.8737 72.2578 31.5535 71.7485 30.3218C71.2391 29.0897 70.4911 27.97 69.5484 27.0273C68.6058 26.0848 67.4864 25.3378 66.2546 24.8284C65.0228 24.3192 63.7027 24.0576 62.3698 24.0592H59.1286Z" fill="black"/>
<path d="M26.1954 68.5775C25.7532 69.5024 24.6449 69.8937 23.72 69.4515C22.7951 69.0093 22.4037 67.9011 22.8459 66.9761L31.6856 48.4865C32.1278 47.5615 33.2361 47.1702 34.161 47.6124C35.086 48.0546 35.4773 49.1629 35.0351 50.0878L26.1954 68.5775Z" fill="black"/>
<path d="M61.9616 68.5775C62.4038 69.5024 63.5121 69.8937 64.437 69.4515C65.3619 69.0093 65.7532 67.9011 65.311 66.9761L56.4714 48.4865C56.0292 47.5615 54.9209 47.1702 53.996 47.6124C53.071 48.0546 52.6797 49.1629 53.1219 50.0878L61.9616 68.5775Z" fill="black"/>
<path d="M9.81432 56.5442C9.00952 57.1793 7.84226 57.0417 7.20718 56.2369C6.57209 55.4321 6.70967 54.2649 7.51447 53.6298L24.7937 39.9943C25.5985 39.3592 26.7658 39.4968 27.4009 40.3016C28.036 41.1064 27.8984 42.2736 27.0936 42.9087L9.81432 56.5442Z" fill="black"/>
<path d="M78.3426 56.5442C79.1474 57.1793 80.3147 57.0417 80.9498 56.2369C81.5849 55.4321 81.4473 54.2649 80.6425 53.6298L63.3632 39.9943C62.5584 39.3592 61.3911 39.4968 60.7561 40.3016C60.121 41.1064 60.2586 42.2736 61.0634 42.9087L78.3426 56.5442Z" fill="black"/>
<path d="M46.3221 71.686C46.3221 72.7112 45.491 73.5423 44.4658 73.5423C43.4406 73.5423 42.6095 72.7112 42.6095 71.686L42.6095 52.4796C42.6095 51.4544 43.4406 50.6233 44.4658 50.6233C45.491 50.6233 46.3221 51.4544 46.3221 52.4796L46.3221 71.686Z" fill="black"/>
<circle cx="43.3916" cy="35.0615" r="6.01582" fill="#D9D9D9"/>
<path d="M90.548 67.9413V42.317H101.826V45.9435H105.413V49.5301H109.079V60.7283H105.413V64.3547H101.826V67.9413H90.548ZM94.573 63.9562H101.427V60.3298H105.014V49.9286H101.427V46.342H94.573V63.9562ZM117.525 67.9413V64.3547H113.898V49.5301H117.923V63.9562H128.364V49.5301H132.429V64.3547H128.763V67.9413H117.525ZM137.249 67.9413V49.5301H148.527V53.1566H151.715V49.5301H159.406V53.1566H162.993V67.9413H159.007V53.5152H152.113V67.9413H148.128V53.5152H141.274V67.9413H137.249ZM167.799 74.9552V53.1566H171.425V49.5301H182.663V53.1566H186.329V64.3547H182.663V67.9413H171.824V74.9552H167.799ZM171.824 63.9562H182.265V53.5152H171.824V63.9562ZM191.149 67.9413V42.317H195.174V67.9413H191.149ZM199.983 67.9413V49.5301H204.008V67.9413H199.983ZM199.983 46.342V42.317H204.008V46.342H199.983ZM208.039 67.9413V49.5301H222.904V53.1566H226.57V67.9413H222.505V53.5152H212.064V67.9413H208.039ZM234.237 75.1544V71.5678H230.611V67.5827H234.636V71.1693H245.117V64.3547H234.237V60.7283H230.611V53.1566H234.237V49.5301H245.515V53.1566H249.142V71.5678H245.515V75.1544H234.237ZM234.636 60.3298H245.117V53.5152H234.636V60.3298ZM253.183 67.9413V63.9562H267.649V60.7283H256.809V57.1018H253.183V53.1566H256.809V49.5301H271.714V53.5152H257.208V56.7033H268.047V60.3298H271.714V64.3547H268.047V67.9413H253.183Z" fill="white"/>
</svg>
