<svg width="212" height="34" viewBox="0 0 212 34" fill="none" xmlns="http://www.w3.org/2000/svg">
<path fill-rule="evenodd" clip-rule="evenodd" d="M56.5652 12.7043C58.6039 12.7043 60.409 13.1469 61.981 14.0311C63.5776 14.9154 64.8306 16.1187 65.7394 17.6416C66.6482 19.1645 67.1027 20.9085 67.1028 22.8735C67.1028 24.8385 66.6482 26.5826 65.7394 28.1055C64.8305 29.6284 63.5776 30.8323 61.981 31.7165C60.4091 32.6007 58.6038 33.0428 56.5652 33.0428C54.5265 33.0428 52.7084 32.6008 51.1118 31.7165C49.5398 30.8323 48.2874 29.6284 47.354 28.1055C46.4451 26.5825 45.9906 24.8386 45.9906 22.8735C45.9906 20.9085 46.4452 19.1645 47.354 17.6416C48.2873 16.1188 49.5399 14.9153 51.1118 14.0311C52.7084 13.1468 54.5265 12.7043 56.5652 12.7043ZM56.5652 17.7524C55.681 17.7524 54.8825 17.9731 54.1702 18.4152C53.4825 18.8573 52.9418 19.4716 52.5488 20.2576C52.1558 21.019 51.9716 21.891 51.9962 22.8735C51.9716 23.856 52.1558 24.7281 52.5488 25.4895C52.9418 26.251 53.4825 26.8532 54.1702 27.2953C54.8825 27.7373 55.6811 27.9582 56.5652 27.9582C57.4494 27.9581 58.2355 27.7374 58.9232 27.2953C59.6109 26.8532 60.151 26.251 60.544 25.4895C60.937 24.728 61.1212 23.8561 61.0967 22.8735C61.1212 21.891 60.937 21.019 60.544 20.2576C60.151 19.4716 59.6109 18.8573 58.9232 18.4152C58.2355 17.9731 57.4494 17.7524 56.5652 17.7524Z" fill="black"/>
<path fill-rule="evenodd" clip-rule="evenodd" d="M115.547 12.8887C116.8 12.8887 117.967 13.1345 119.048 13.6257C120.128 14.0924 121.062 14.7431 121.848 15.5783C122.659 16.4134 123.273 17.4081 123.69 18.5625C124.132 19.6924 124.341 20.9333 124.317 22.2843L124.28 23.9052H109.482C109.586 24.8632 109.852 25.7232 110.279 26.4846C110.844 27.4671 111.642 28.2285 112.674 28.7689C113.705 29.3092 114.897 29.5796 116.248 29.5796C117.206 29.5795 118.09 29.4198 118.9 29.1006C119.735 28.7813 120.632 28.204 121.59 27.369L123.506 30.0586C122.916 30.648 122.192 31.1637 121.332 31.6058C120.497 32.0479 119.6 32.4043 118.642 32.6745C117.709 32.9201 116.788 33.0428 115.879 33.0428C113.889 33.0428 112.121 32.6253 110.573 31.7902C109.051 30.9305 107.847 29.7636 106.963 28.2899C106.103 26.8161 105.673 25.1212 105.673 23.2052C105.673 21.6823 105.918 20.2942 106.41 19.0415C106.901 17.7888 107.577 16.708 108.436 15.7992C109.321 14.8659 110.365 14.1535 111.569 13.6623C112.797 13.1465 114.123 12.8887 115.547 12.8887ZM115.547 16.389C114.221 16.389 113.104 16.6469 112.195 17.1626C111.286 17.6538 110.598 18.3908 110.132 19.3732C109.912 19.8248 109.744 20.3286 109.628 20.8839H120.448V20.6258C120.374 19.8154 120.104 19.0909 119.637 18.4523C119.171 17.8137 118.581 17.3101 117.869 16.9416C117.156 16.5732 116.382 16.389 115.547 16.389Z" fill="black"/>
<path fill-rule="evenodd" clip-rule="evenodd" d="M9.87424 3.06864e-08C10.5813 -6.99327e-05 11.2812 0.152823 11.933 0.449206C12.585 0.745626 13.1759 1.17991 13.6708 1.72655V30.6556C12.8547 31.6575 12.5979 32.688 10.5781 32.688C8.55844 32.688 7.40388 31.0818 7.40388 31.0818L5.34844 28.7565L3.55668 26.4722C3.55101 26.4688 3.16385 26.2302 3.05968 25.7627C2.28254 25.3684 1.60489 24.7762 1.0852 24.0367C0.565493 23.2972 0.218638 22.4319 0.0749091 21.5158C-0.0687572 20.5998 -0.0050642 19.6598 0.259876 18.7761C0.524886 17.8923 0.983486 17.0908 1.59681 16.4407C0.88504 15.6859 0.383607 14.7293 0.149683 13.6808C-0.0841899 12.6323 -0.0411497 11.5338 0.273932 10.5105C0.58904 9.48716 1.16357 8.58034 1.93189 7.89343C2.70021 7.20652 3.63141 6.76718 4.61926 6.62565C4.50324 5.80583 4.5524 4.96842 4.76318 4.17104C4.97396 3.37375 5.34136 2.63519 5.84038 2.00597C6.33945 1.37669 6.95843 0.871322 7.65463 0.525104C8.35078 0.178946 9.10816 -8.55765e-05 9.87424 3.06864e-08ZM7.96103 10.2182C7.85669 10.218 7.75508 10.2628 7.66981 10.3458C7.58453 10.4289 7.51972 10.5462 7.48484 10.682L7.06993 12.4451L7.05925 12.4889C6.92943 13.0114 6.71498 13.4861 6.43238 13.877C6.14979 14.2679 5.8064 14.5649 5.42828 14.7451L4.15037 15.318C4.05198 15.3659 3.96667 15.4551 3.90637 15.5727C3.84614 15.6902 3.81367 15.8307 3.81361 15.9746C3.81419 16.1186 3.84724 16.2591 3.9075 16.3766C3.96768 16.4939 4.05241 16.5827 4.15037 16.6313L5.42828 17.2048C5.81698 17.3838 6.17007 17.6856 6.45937 18.0863C6.74873 18.4871 6.9662 18.9758 7.09467 19.5132L7.5107 21.2757C7.54551 21.4114 7.60997 21.5288 7.69511 21.6119C7.78029 21.695 7.88203 21.7396 7.98633 21.7395C8.09074 21.7403 8.19285 21.6962 8.27812 21.6131C8.36336 21.5299 8.42764 21.4118 8.46196 21.2757L8.87744 19.5132C9.00671 18.9774 9.22511 18.4901 9.51442 18.0908C9.80369 17.6917 10.1563 17.3908 10.5444 17.2126L11.8217 16.6397C11.9201 16.5919 12.0054 16.5032 12.0657 16.3856C12.1261 16.268 12.1585 16.1272 12.1585 15.9831C12.1579 15.8392 12.1254 15.6991 12.0652 15.5817C12.0049 15.4642 11.9199 15.375 11.8217 15.3264L11.797 15.318L10.5191 14.7451C10.1309 14.567 9.77795 14.2661 9.48856 13.8669C9.19922 13.4677 8.98147 12.9809 8.85214 12.4451L8.43666 10.682C8.40135 10.5468 8.33671 10.4299 8.2517 10.3469C8.16664 10.264 8.06516 10.2189 7.96103 10.2182Z" fill="black"/>
<path d="M43.6462 12.7043C44.0883 12.7043 44.4938 12.7413 44.8623 12.815C45.2553 12.8887 45.6117 12.9748 45.931 13.0731L44.3096 19.5942C44.0394 19.4223 43.6709 19.2876 43.2043 19.1894C42.7622 19.0666 42.2956 19.005 41.8044 19.005C41.2641 19.005 40.7604 19.1031 40.2938 19.2996C39.8272 19.4715 39.4341 19.7294 39.1148 20.0732C38.7955 20.417 38.5371 20.8225 38.3406 21.2892C38.1687 21.7559 38.0831 22.284 38.0831 22.8735V32.6745H32.1507V13.1096H37.7514L37.8712 16.0876C38.0157 15.8616 38.1724 15.6428 38.3406 15.431C39.0284 14.5959 39.8268 13.9326 40.7356 13.4413C41.6444 12.9501 42.6147 12.7043 43.6462 12.7043Z" fill="black"/>
<path d="M81.9007 12.7043C83.3744 12.7043 84.6149 13.0117 85.622 13.6257C86.629 14.2153 87.3904 15.1118 87.9062 16.3153C88.422 17.4944 88.6798 18.9435 88.6798 20.6629V32.6745H82.7479V21.1419C82.7479 20.356 82.6373 19.7052 82.4162 19.1894C82.1952 18.6735 81.8513 18.2926 81.3846 18.047C80.9425 17.7768 80.3898 17.6541 79.7266 17.6787C79.2108 17.6787 78.7317 17.7643 78.2896 17.9362C77.8475 18.0836 77.4671 18.3174 77.1478 18.6367C76.8284 18.9315 76.5701 19.2754 76.3736 19.6684C76.2018 20.0613 76.1161 20.491 76.1161 20.9575V32.6745H70.2208V13.1096H75.8209L75.9317 15.5058C76.0362 15.3801 76.1469 15.2571 76.2634 15.1364C76.9757 14.3995 77.8232 13.8098 78.8057 13.3677C79.7882 12.9256 80.8199 12.7043 81.9007 12.7043Z" fill="black"/>
<path d="M100.388 13.1096H104.183V18.2679H100.388V32.6745H94.4931V18.2679H91.0293V13.1096H94.4931V8.17229H100.388V13.1096Z" fill="black"/>
<path d="M135.515 20.1564L139.939 13.3306H144.434L137.602 22.8747L145.098 32.6745H140.455L135.144 25.7706L130.028 32.6745H125.533L132.971 22.9714L125.496 13.3306H130.286L135.515 20.1564Z" fill="black"/>
<path d="M151.344 16.3305C151.561 16.0055 151.818 15.693 152.117 15.3939C152.83 14.6571 153.677 14.0678 154.66 13.6257C155.642 13.159 156.649 12.9252 157.681 12.9252C159.155 12.9252 160.383 13.2202 161.365 13.8096C162.348 14.3745 163.085 15.2466 163.576 16.4255C164.068 17.6045 164.313 19.0908 164.313 20.8839V32.6745H160.518V21.1419C160.518 20.0366 160.371 19.1275 160.076 18.4152C159.781 17.6784 159.327 17.1502 158.713 16.8309C158.099 16.487 157.337 16.3399 156.428 16.389C155.692 16.389 155.016 16.5116 154.402 16.7572C153.788 16.9783 153.247 17.2978 152.781 17.7152C152.339 18.1328 151.982 18.6244 151.712 19.1894C151.466 19.7297 151.344 20.319 151.344 20.9575V32.6745H147.548V5.40903H151.344V16.3305Z" fill="black"/>
<path fill-rule="evenodd" clip-rule="evenodd" d="M198.579 32.6745H196.516L193.609 24.9003H181.426L178.499 32.6745H176.583L186.383 6.88314H188.889L198.579 32.6745ZM187.547 8.34826C187.413 8.76384 187.284 9.14783 187.157 9.49911C186.961 10.113 186.752 10.7024 186.531 11.2673C186.334 11.8077 186.125 12.3853 185.904 12.9994C185.683 13.5889 185.425 14.2768 185.13 15.0627L182.12 23.0579H192.919L189.847 14.8412C189.552 14.0799 189.294 13.4045 189.073 12.815C188.877 12.2255 188.68 11.6604 188.483 11.12C188.287 10.5796 188.09 10.0149 187.894 9.42546C187.786 9.08856 187.67 8.72952 187.547 8.34826Z" fill="black"/>
<path d="M211.455 8.72494H207.292V30.8322H211.455V32.6745H201.285V30.8322H205.449V8.72494H201.285V6.88314H211.455V8.72494Z" fill="black"/>
<path d="M28.5385 13.2828C29.4923 13.2828 30.2655 14.0556 30.2656 15.0093V17.8727C30.2655 18.8264 29.4923 19.5998 28.5385 19.5998H15.9967V13.2828H28.5385Z" fill="black"/>
<path d="M28.5385 1.71081C29.4923 1.71081 30.2656 2.48409 30.2656 3.43792V6.30069C30.2656 7.25455 29.4924 8.0278 28.5385 8.0278H15.9967V1.71081H28.5385Z" fill="black"/>
</svg>
