<svg width="30" height="30" viewBox="0 0 30 30" fill="none" xmlns="http://www.w3.org/2000/svg">
<path d="M6.09375 3.75C4.97487 3.75 3.90181 4.19447 3.11064 4.98564C2.31947 5.77681 1.875 6.84987 1.875 7.96875V10.3125H9.81094C10.1838 10.3122 10.5412 10.1638 10.8047 9.9L14.0625 6.64406L12.1312 4.71281C11.8265 4.40757 11.4645 4.16541 11.066 4.0002C10.6676 3.83499 10.2404 3.74997 9.80906 3.75H6.09375ZM1.875 22.0312V12.1875H9.81094C10.6809 12.1873 11.5151 11.8417 12.1303 11.2266L16.3256 7.03125H23.9062C25.0251 7.03125 26.0982 7.47572 26.8894 8.26689C27.6805 9.05806 28.125 10.1311 28.125 11.25V17.8125H28.1016C28.0266 17.0673 27.7742 16.3509 27.3654 15.7233C26.9566 15.0957 26.4034 14.5752 25.752 14.2053C25.1007 13.8355 24.3702 13.6272 23.6218 13.5977C22.8734 13.5683 22.1288 13.7186 21.4505 14.0361C20.7721 14.3537 20.1797 14.8291 19.7229 15.4227C19.2661 16.0162 18.9581 16.7106 18.8249 17.4476C18.6916 18.1847 18.7369 18.9429 18.957 19.6588C19.177 20.3748 19.5655 21.0276 20.0897 21.5625H20.0784C18.0347 21.5625 16.4062 23.2406 16.4062 25.2544C16.4062 25.5894 16.4416 25.9212 16.5122 26.25H6.09375C4.97487 26.25 3.90181 25.8055 3.11064 25.0144C2.31947 24.2232 1.875 23.1501 1.875 22.0312ZM26.7188 18.2812C26.7188 19.1515 26.373 19.9861 25.7577 20.6014C25.1423 21.2168 24.3077 21.5625 23.4375 21.5625C22.5673 21.5625 21.7327 21.2168 21.1173 20.6014C20.502 19.9861 20.1562 19.1515 20.1562 18.2812C20.1562 17.411 20.502 16.5764 21.1173 15.9611C21.7327 15.3457 22.5673 15 23.4375 15C24.3077 15 25.1423 15.3457 25.7577 15.9611C26.373 16.5764 26.7188 17.411 26.7188 18.2812ZM29.0625 25.2544C29.0625 27.15 27.4556 29.0625 23.4375 29.0625C19.4194 29.0625 17.8125 27.1584 17.8125 25.2544C17.8125 24.0019 18.8269 22.9688 20.0784 22.9688H26.7966C28.0481 22.9688 29.0625 24.0019 29.0625 25.2544Z" fill="black"/>
</svg>
